<svg class="diagram-root" style="background: #f5f6f6" xmlns="http://www.w3.org/2000/svg" xmlns:xlink="http://www.w3.org/1999/xlink"><style>.diagram-root { font-family: "Helvetica Neue", sans-serif; font-size: 12px; } .t { overflow: visible; } .t-bg { y: 40; fill: #fff;   } .th { fill: #005aa0;   } .tht { fill: #fff; font-size: 14px;  } .tf { fill: #323c46; overflow: visible; } .tf.pk { fill: #005aa0; font-weight: bold; } .tf.fk { font-weight: bold; } .ty { fill: #adb1b5; font-weight: normal; text-anchor: end; } .r { fill: transparent; stroke: #c3c3c3; stroke-width: 1; } .l { stroke: 1; } .i { fill: #c2c7ce; stroke: #c2c7ce; } .i.ix { fill: #afb3b6; stroke: #000; } .fa { fill: transparent; overflow: visible; } .fa .bg.hover { fill: #f7f7f7; } .c { cy: 12; r: 4; stroke: #d2d2dc; fill: #d2d2dc; } .hr { fill: transparent; stroke: #323c46; stroke-opacity: 0.035; stroke-width: 13; } .dc { stroke: #fa5a3c; fill: #fa5a3c; } .x { stroke: white; stroke-width: 1; } .hl .th { fill: #1b9bff; } .hl .tht {  } .fhl .bg { fill: #e7f4ff; } .fhls .bg {  } .r.hl { stroke: #1b9bff; } .dim { opacity: 0.25; }</style><g class="drawing-wrapper" transform="translate(23, 54) scale(1,1)"><g class="rs"><path d="M 226 158 m -1, 0 a 1,1 0 1,0 2,0 a 1,1 0 1,0 -2,0 M 226 158 m -0.5, 0 a 0.5,0.5 0 1,0 1,0 a 0.5,0.5 0 1,0 -1,0  M226 158 L226 158 214 158 M 226 164 m -1, 0 a 1,1 0 1,0 2,0 a 1,1 0 1,0 -2,0 M 226 164 m -0.5, 0 a 0.5,0.5 0 1,0 1,0 a 0.5,0.5 0 1,0 -1,0  M226 164 L226 164 219 158 226 152 M 226 152 m -1, 0 a 1,1 0 1,0 2,0 a 1,1 0 1,0 -2,0 M 226 152 m -0.5, 0 a 0.5,0.5 0 1,0 1,0 a 0.5,0.5 0 1,0 -1,0  M214 158 Q 197.68 158, 181.35 106 T 148.7 54 M 136.7 54 m -1, 0 a 1,1 0 1,0 2,0 a 1,1 0 1,0 -2,0 M 136.7 54 m -0.5, 0 a 0.5,0.5 0 1,0 1,0 a 0.5,0.5 0 1,0 -1,0  M136.7 54 L136.7 54 148.7 54 M142.7 60 L142.7 60 142.7 48" id="h2181247181" class="r"></path><path d="M 226 183 m -1, 0 a 1,1 0 1,0 2,0 a 1,1 0 1,0 -2,0 M 226 183 m -0.5, 0 a 0.5,0.5 0 1,0 1,0 a 0.5,0.5 0 1,0 -1,0  M226 183 L226 183 214 183 M 226 189 m -1, 0 a 1,1 0 1,0 2,0 a 1,1 0 1,0 -2,0 M 226 189 m -0.5, 0 a 0.5,0.5 0 1,0 1,0 a 0.5,0.5 0 1,0 -1,0  M226 189 L226 189 219 183 226 177 M 226 177 m -1, 0 a 1,1 0 1,0 2,0 a 1,1 0 1,0 -2,0 M 226 177 m -0.5, 0 a 0.5,0.5 0 1,0 1,0 a 0.5,0.5 0 1,0 -1,0  M214 183 Q 198.1 183, 182.19 193.5 T 150.37 204 M 138.37 204 m -1, 0 a 1,1 0 1,0 2,0 a 1,1 0 1,0 -2,0 M 138.37 204 m -0.5, 0 a 0.5,0.5 0 1,0 1,0 a 0.5,0.5 0 1,0 -1,0  M138.37 204 L138.37 204 150.37 204 M144.37 210 L144.37 210 144.37 198" id="h120309474" class="r"></path><path d="M 433 124 m -1, 0 a 1,1 0 1,0 2,0 a 1,1 0 1,0 -2,0 M 433 124 m -0.5, 0 a 0.5,0.5 0 1,0 1,0 a 0.5,0.5 0 1,0 -1,0  M433 124 L433 124 421 124 M 433 130 m -1, 0 a 1,1 0 1,0 2,0 a 1,1 0 1,0 -2,0 M 433 130 m -0.5, 0 a 0.5,0.5 0 1,0 1,0 a 0.5,0.5 0 1,0 -1,0  M433 130 L433 130 426 124 433 118 M 433 118 m -1, 0 a 1,1 0 1,0 2,0 a 1,1 0 1,0 -2,0 M 433 118 m -0.5, 0 a 0.5,0.5 0 1,0 1,0 a 0.5,0.5 0 1,0 -1,0  M421 124 Q 405.43 124, 389.85 128.5 T 358.69 133 M 346.69 133 m -1, 0 a 1,1 0 1,0 2,0 a 1,1 0 1,0 -2,0 M 346.69 133 m -0.5, 0 a 0.5,0.5 0 1,0 1,0 a 0.5,0.5 0 1,0 -1,0  M346.69 133 L346.69 133 358.69 133 M352.69 139 L352.69 139 352.69 127" id="h111757511" class="r"></path></g><g class="hrs"></g><g class="ts"><svg width="120.69" height="225" x="226" y="-24" id="h1611266215" class="t"><rect height="40" width="120.69" class="th"></rect><text x="13" y="25" class="tht">Posts</text><rect height="185" width="120.69" class="t-bg"></rect><text x="13" y="61" class="tf pk">PostsID<tspan x="107.69" class="ty">int</tspan></text><path d="M7,14A2,2 0 0,1 5,12A2,2 0 0,1 7,10A2,2 0 0,1 9,12A2,2 0 0,1 7,14M12.65,10C11.83,7.67 9.61,6 7, 6A6, 6 0 0, 0 1, 12A6, 6 0 0, 0 7, 18C9.61, 18 11.83, 16.33 12.65, 14H17V18H21V14H23V10H12.65Z" class="i pk" transform="translate(75.016171875, 48) scale(0.65)"></path><text x="13" y="86" class="tf">Title<tspan x="107.69" class="ty">int</tspan></text><text x="13" y="111" class="tf">Text<tspan x="107.69" class="ty">int</tspan></text><text x="13" y="136" class="tf">Location<tspan x="107.69" class="ty">int</tspan></text><text x="13" y="161" class="tf fk">UserID<tspan x="107.69" class="ty">int</tspan></text><text x="13" y="186" class="tf fk">RegionID<tspan x="107.69" class="ty">int</tspan></text><text x="13" y="211" class="tf fk">CategoryID<tspan x="107.69" class="ty">int</tspan></text></svg><svg width="128.7" height="100" x="8" y="-3" id="h41485699" class="t"><rect height="40" width="128.7" class="th"></rect><text x="13" y="25" class="tht">Regions</text><rect height="60" width="128.7" class="t-bg"></rect><text x="13" y="61" class="tf pk">RegionID<tspan x="115.69999999999999" class="ty">int</tspan></text><path d="M7,14A2,2 0 0,1 5,12A2,2 0 0,1 7,10A2,2 0 0,1 9,12A2,2 0 0,1 7,14M12.65,10C11.83,7.67 9.61,6 7, 6A6, 6 0 0, 0 1, 12A6, 6 0 0, 0 7, 18C9.61, 18 11.83, 16.33 12.65, 14H17V18H21V14H23V10H12.65Z" class="i pk" transform="translate(83.02617187499999, 48) scale(0.65)"></path><text x="13" y="86" class="tf">Name<tspan x="115.69999999999999" class="ty">string</tspan></text><path d="M814.545 581.818v-23.273H535.273v-93.09h-46.546v93.09H209.455v139.637H256V605.09h232.727v93.09h46.546v-93.09H768v93.09h46.545V581.819zM674.91 465.455H349.091V139.636h325.818v325.819zM325.82 884.364H139.635V698.182h186.182v186.182z m279.272 0H418.909V698.182h186.182v186.182z m279.273 0H698.182V698.182h186.182v186.182zM395.636 418.909h232.728V186.182H395.636v232.727zM186.182 837.82h93.09v-93.092h-93.09v93.091z m279.273 0h93.09v-93.092h-93.09v93.091z m279.272 0h93.091v-93.092h-93.09v93.091z" class="i ix" transform="translate(71.35624999999999, 75) scale(0.014)"></path></svg><svg width="139.37" height="100" x="-1" y="147" id="h1234641711" class="t"><rect height="40" width="139.37" class="th"></rect><text x="13" y="25" class="tht">Categories</text><rect height="60" width="139.37" class="t-bg"></rect><text x="13" y="61" class="tf pk">CategoryID<tspan x="126.37" class="ty">int</tspan></text><path d="M7,14A2,2 0 0,1 5,12A2,2 0 0,1 7,10A2,2 0 0,1 9,12A2,2 0 0,1 7,14M12.65,10C11.83,7.67 9.61,6 7, 6A6, 6 0 0, 0 1, 12A6, 6 0 0, 0 7, 18C9.61, 18 11.83, 16.33 12.65, 14H17V18H21V14H23V10H12.65Z" class="i pk" transform="translate(93.696171875, 48) scale(0.65)"></path><text x="13" y="86" class="tf">Name<tspan x="126.37" class="ty">int</tspan></text></svg><svg width="114.03" height="125" x="433" y="67" id="h3889921393" class="t"><rect height="40" width="114.03" class="th"></rect><text x="13" y="25" class="tht">Users</text><rect height="85" width="114.03" class="t-bg"></rect><text x="13" y="61" class="tf fk">UsersID<tspan x="101.03" class="ty">int</tspan></text><text x="13" y="86" class="tf">Username<tspan x="101.03" class="ty">int</tspan></text><text x="13" y="111" class="tf">Password<tspan x="101.03" class="ty">int</tspan></text></svg></g></g><text class="qdbd-link" x="10" y="20">www.quickdatabasediagrams.com</text></svg>