<svg class="diagram-root" style="background: #f5f6f6" xmlns="http://www.w3.org/2000/svg" xmlns:xlink="http://www.w3.org/1999/xlink"><style>.diagram-root { font-family: "Helvetica Neue", sans-serif; font-size: 12px; } .t { overflow: visible; } .t-bg { y: 40; fill: #fff;   } .th { fill: #005aa0;   } .tht { fill: #fff; font-size: 14px;  } .tf { fill: #323c46; overflow: visible; } .tf.pk { fill: #005aa0; font-weight: bold; } .tf.fk { font-weight: bold; } .ty { fill: #adb1b5; font-weight: normal; text-anchor: end; } .r { fill: transparent; stroke: #c3c3c3; stroke-width: 1; } .l { stroke: 1; } .i { fill: #c2c7ce; stroke: #c2c7ce; } .i.ix { fill: #afb3b6; stroke: #000; } .fa { fill: transparent; overflow: visible; } .fa .bg.hover { fill: #f7f7f7; } .c { cy: 12; r: 4; stroke: #d2d2dc; fill: #d2d2dc; } .hr { fill: transparent; stroke: #323c46; stroke-opacity: 0.035; stroke-width: 13; } .dc { stroke: #fa5a3c; fill: #fa5a3c; } .x { stroke: white; stroke-width: 1; } .hl .th { fill: #1b9bff; } .hl .tht {  } .fhl .bg { fill: #e7f4ff; } .fhls .bg {  } .r.hl { stroke: #1b9bff; } .dim { opacity: 0.25; }</style><g class="drawing-wrapper" transform="translate(-68.62, 37.31) scale(1,1)"><g class="rs"><path d="M 335.1 74.69 m -1, 0 a 1,1 0 1,0 2,0 a 1,1 0 1,0 -2,0 M 335.1 74.69 m -0.5, 0 a 0.5,0.5 0 1,0 1,0 a 0.5,0.5 0 1,0 -1,0  M335.1 74.69 L335.1 74.69 323.1 74.69 M 335.1 80.69 m -1, 0 a 1,1 0 1,0 2,0 a 1,1 0 1,0 -2,0 M 335.1 80.69 m -0.5, 0 a 0.5,0.5 0 1,0 1,0 a 0.5,0.5 0 1,0 -1,0  M335.1 80.69 L335.1 80.69 328.1 74.69 335.1 68.69 M 335.1 68.69 m -1, 0 a 1,1 0 1,0 2,0 a 1,1 0 1,0 -2,0 M 335.1 68.69 m -0.5, 0 a 0.5,0.5 0 1,0 1,0 a 0.5,0.5 0 1,0 -1,0  M323.1 74.69 Q 301.76 74.69, 280.42 64 T 237.73 53.31 M 225.73 53.31 m -1, 0 a 1,1 0 1,0 2,0 a 1,1 0 1,0 -2,0 M 225.73 53.31 m -0.5, 0 a 0.5,0.5 0 1,0 1,0 a 0.5,0.5 0 1,0 -1,0  M225.73 53.31 L225.73 53.31 237.73 53.31 M231.73 59.31 L231.73 59.31 231.73 47.31" id="h2687882010" class="r"></path><path d="M 454.23 99.69 m -1, 0 a 1,1 0 1,0 2,0 a 1,1 0 1,0 -2,0 M 454.23 99.69 m -0.5, 0 a 0.5,0.5 0 1,0 1,0 a 0.5,0.5 0 1,0 -1,0  M454.23 99.69 L454.23 99.69 466.23 99.69 M 454.23 105.69 m -1, 0 a 1,1 0 1,0 2,0 a 1,1 0 1,0 -2,0 M 454.23 105.69 m -0.5, 0 a 0.5,0.5 0 1,0 1,0 a 0.5,0.5 0 1,0 -1,0  M454.23 105.69 L454.23 105.69 461.23 99.69 454.23 93.69 M 454.23 93.69 m -1, 0 a 1,1 0 1,0 2,0 a 1,1 0 1,0 -2,0 M 454.23 93.69 m -0.5, 0 a 0.5,0.5 0 1,0 1,0 a 0.5,0.5 0 1,0 -1,0  M466.23 99.69 Q 481.71 99.69, 497.18 76.38 T 528.13 53.07 M 540.13 53.07 m -1, 0 a 1,1 0 1,0 2,0 a 1,1 0 1,0 -2,0 M 540.13 53.07 m -0.5, 0 a 0.5,0.5 0 1,0 1,0 a 0.5,0.5 0 1,0 -1,0  M540.13 53.07 L540.13 53.07 528.13 53.07 M534.13 59.07 L534.13 59.07 534.13 47.07" id="h1879826038" class="r"></path><path d="M 336.55 243.97 m -1, 0 a 1,1 0 1,0 2,0 a 1,1 0 1,0 -2,0 M 336.55 243.97 m -0.5, 0 a 0.5,0.5 0 1,0 1,0 a 0.5,0.5 0 1,0 -1,0  M336.55 243.97 L336.55 243.97 324.55 243.97 M 336.55 249.97 m -1, 0 a 1,1 0 1,0 2,0 a 1,1 0 1,0 -2,0 M 336.55 249.97 m -0.5, 0 a 0.5,0.5 0 1,0 1,0 a 0.5,0.5 0 1,0 -1,0  M336.55 249.97 L336.55 249.97 329.55 243.97 336.55 237.97 M 336.55 237.97 m -1, 0 a 1,1 0 1,0 2,0 a 1,1 0 1,0 -2,0 M 336.55 237.97 m -0.5, 0 a 0.5,0.5 0 1,0 1,0 a 0.5,0.5 0 1,0 -1,0  M324.55 243.97 C 272.23 243.97, 273.1 49.69, 323.1 49.69 M 335.1 49.69 m -1, 0 a 1,1 0 1,0 2,0 a 1,1 0 1,0 -2,0 M 335.1 49.69 m -0.5, 0 a 0.5,0.5 0 1,0 1,0 a 0.5,0.5 0 1,0 -1,0  M335.1 49.69 L335.1 49.69 323.1 49.69 M329.1 55.69 L329.1 55.69 329.1 43.69" id="h3213066286" class="r"></path><path d="M 336.55 268.97 m -1, 0 a 1,1 0 1,0 2,0 a 1,1 0 1,0 -2,0 M 336.55 268.97 m -0.5, 0 a 0.5,0.5 0 1,0 1,0 a 0.5,0.5 0 1,0 -1,0  M336.55 268.97 L336.55 268.97 324.55 268.97 M 336.55 274.97 m -1, 0 a 1,1 0 1,0 2,0 a 1,1 0 1,0 -2,0 M 336.55 274.97 m -0.5, 0 a 0.5,0.5 0 1,0 1,0 a 0.5,0.5 0 1,0 -1,0  M336.55 274.97 L336.55 274.97 329.55 268.97 336.55 262.97 M 336.55 262.97 m -1, 0 a 1,1 0 1,0 2,0 a 1,1 0 1,0 -2,0 M 336.55 262.97 m -0.5, 0 a 0.5,0.5 0 1,0 1,0 a 0.5,0.5 0 1,0 -1,0  M324.55 268.97 Q 304.08 268.97, 283.6 243.06 T 242.65 217.14 M 230.65 217.14 m -1, 0 a 1,1 0 1,0 2,0 a 1,1 0 1,0 -2,0 M 230.65 217.14 m -0.5, 0 a 0.5,0.5 0 1,0 1,0 a 0.5,0.5 0 1,0 -1,0  M230.65 217.14 L230.65 217.14 242.65 217.14 M236.65 223.14 L236.65 223.14 236.65 211.14" id="h2747191627" class="r"></path></g><g class="hrs"></g><g class="ts"><svg width="132.02" height="125" x="93.71" y="-3.69" id="h16875077" class="t"><rect height="40" width="132.02" class="th"></rect><text x="13" y="25" class="tht">Doctors</text><rect height="85" width="132.02" class="t-bg"></rect><text x="13" y="61" class="tf pk">DoctorsID<tspan x="119.02000000000001" class="ty">int</tspan></text><path d="M7,14A2,2 0 0,1 5,12A2,2 0 0,1 7,10A2,2 0 0,1 9,12A2,2 0 0,1 7,14M12.65,10C11.83,7.67 9.61,6 7, 6A6, 6 0 0, 0 1, 12A6, 6 0 0, 0 7, 18C9.61, 18 11.83, 16.33 12.65, 14H17V18H21V14H23V10H12.65Z" class="i pk" transform="translate(86.34617187500001, 48) scale(0.65)"></path><text x="13" y="86" class="tf">Name<tspan x="119.02000000000001" class="ty">string</tspan></text><path d="M814.545 581.818v-23.273H535.273v-93.09h-46.546v93.09H209.455v139.637H256V605.09h232.727v93.09h46.546v-93.09H768v93.09h46.545V581.819zM674.91 465.455H349.091V139.636h325.818v325.819zM325.82 884.364H139.635V698.182h186.182v186.182z m279.272 0H418.909V698.182h186.182v186.182z m279.273 0H698.182V698.182h186.182v186.182zM395.636 418.909h232.728V186.182H395.636v232.727zM186.182 837.82h93.09v-93.092h-93.09v93.091z m279.273 0h93.09v-93.092h-93.09v93.091z m279.272 0h93.091v-93.092h-93.09v93.091z" class="i ix" transform="translate(74.67625000000001, 75) scale(0.014)"></path><text x="13" y="111" class="tf">Specialty<tspan x="119.02000000000001" class="ty">int</tspan></text></svg><svg width="119.13" height="150" x="335.1" y="-7.31" id="h3280351983" class="t"><rect height="40" width="119.13" class="th"></rect><text x="13" y="25" class="tht">Visits</text><rect height="110" width="119.13" class="t-bg"></rect><text x="13" y="61" class="tf pk">VisitsID<tspan x="106.13" class="ty">int</tspan></text><path d="M7,14A2,2 0 0,1 5,12A2,2 0 0,1 7,10A2,2 0 0,1 9,12A2,2 0 0,1 7,14M12.65,10C11.83,7.67 9.61,6 7, 6A6, 6 0 0, 0 1, 12A6, 6 0 0, 0 7, 18C9.61, 18 11.83, 16.33 12.65, 14H17V18H21V14H23V10H12.65Z" class="i pk" transform="translate(73.456171875, 48) scale(0.65)"></path><text x="13" y="86" class="tf fk">DoctorsID<tspan x="106.13" class="ty">int</tspan></text><text x="13" y="111" class="tf fk">PatientsID<tspan x="106.13" class="ty">int</tspan></text><text x="13" y="136" class="tf">Date<tspan x="106.13" class="ty">int</tspan></text></svg><svg width="134.03" height="150" x="540.13" y="-3.93" id="h3676580549" class="t"><rect height="40" width="134.03" class="th"></rect><text x="13" y="25" class="tht">Patients</text><rect height="110" width="134.03" class="t-bg"></rect><text x="13" y="61" class="tf pk">PatientsID<tspan x="121.03" class="ty">int</tspan></text><path d="M7,14A2,2 0 0,1 5,12A2,2 0 0,1 7,10A2,2 0 0,1 9,12A2,2 0 0,1 7,14M12.65,10C11.83,7.67 9.61,6 7, 6A6, 6 0 0, 0 1, 12A6, 6 0 0, 0 7, 18C9.61, 18 11.83, 16.33 12.65, 14H17V18H21V14H23V10H12.65Z" class="i pk" transform="translate(88.356171875, 48) scale(0.65)"></path><text x="13" y="86" class="tf">Name<tspan x="121.03" class="ty">int</tspan></text><text x="13" y="111" class="tf">Insurance<tspan x="121.03" class="ty">int</tspan></text><text x="13" y="136" class="tf">Birthday<tspan x="121.03" class="ty">int</tspan></text></svg><svg width="140.03" height="125" x="90.62" y="160.14" id="h1794948770" class="t"><rect height="40" width="140.03" class="th"></rect><text x="13" y="25" class="tht">Diseases</text><rect height="85" width="140.03" class="t-bg"></rect><text x="13" y="61" class="tf pk">DiseasesID<tspan x="127.03" class="ty">int</tspan></text><path d="M7,14A2,2 0 0,1 5,12A2,2 0 0,1 7,10A2,2 0 0,1 9,12A2,2 0 0,1 7,14M12.65,10C11.83,7.67 9.61,6 7, 6A6, 6 0 0, 0 1, 12A6, 6 0 0, 0 7, 18C9.61, 18 11.83, 16.33 12.65, 14H17V18H21V14H23V10H12.65Z" class="i pk" transform="translate(94.356171875, 48) scale(0.65)"></path><text x="13" y="86" class="tf">Name<tspan x="127.03" class="ty">int</tspan></text><text x="13" y="111" class="tf">Description<tspan x="127.03" class="ty">int</tspan></text></svg><svg width="147.38" height="150" x="336.55" y="161.97" id="h3047656030" class="t"><rect height="40" width="147.38" class="th"></rect><text x="13" y="25" class="tht">Diagnoses</text><rect height="110" width="147.38" class="t-bg"></rect><text x="13" y="61" class="tf pk">DiagnosesID<tspan x="134.38" class="ty">int</tspan></text><path d="M7,14A2,2 0 0,1 5,12A2,2 0 0,1 7,10A2,2 0 0,1 9,12A2,2 0 0,1 7,14M12.65,10C11.83,7.67 9.61,6 7, 6A6, 6 0 0, 0 1, 12A6, 6 0 0, 0 7, 18C9.61, 18 11.83, 16.33 12.65, 14H17V18H21V14H23V10H12.65Z" class="i pk" transform="translate(101.706171875, 48) scale(0.65)"></path><text x="13" y="86" class="tf fk">VisitsID<tspan x="134.38" class="ty">int</tspan></text><text x="13" y="111" class="tf fk">DiseasesID<tspan x="134.38" class="ty">int</tspan></text><text x="13" y="136" class="tf">Notes<tspan x="134.38" class="ty">int</tspan></text></svg></g></g><text class="qdbd-link" x="10" y="20">www.quickdatabasediagrams.com</text></svg>