<svg class="diagram-root" style="background: #f5f6f6" xmlns="http://www.w3.org/2000/svg" xmlns:xlink="http://www.w3.org/1999/xlink"><style>.diagram-root { font-family: "Helvetica Neue", sans-serif; font-size: 12px; } .t { overflow: visible; } .t-bg { y: 40; fill: #fff;   } .th { fill: #005aa0;   } .tht { fill: #fff; font-size: 14px;  } .tf { fill: #323c46; overflow: visible; } .tf.pk { fill: #005aa0; font-weight: bold; } .tf.fk { font-weight: bold; } .ty { fill: #adb1b5; font-weight: normal; text-anchor: end; } .r { fill: transparent; stroke: #c3c3c3; stroke-width: 1; } .l { stroke: 1; } .i { fill: #c2c7ce; stroke: #c2c7ce; } .i.ix { fill: #afb3b6; stroke: #000; } .fa { fill: transparent; overflow: visible; } .fa .bg.hover { fill: #f7f7f7; } .c { cy: 12; r: 4; stroke: #d2d2dc; fill: #d2d2dc; } .hr { fill: transparent; stroke: #323c46; stroke-opacity: 0.035; stroke-width: 13; } .dc { stroke: #fa5a3c; fill: #fa5a3c; } .x { stroke: white; stroke-width: 1; } .hl .th { fill: #1b9bff; } .hl .tht {  } .fhl .bg { fill: #e7f4ff; } .fhls .bg {  } .r.hl { stroke: #1b9bff; } .dim { opacity: 0.25; }</style><g class="drawing-wrapper" transform="translate(24.138571428571428, 277.1528571428573) scale(1,1)"><g class="rs"><path d="M 122.35 -80.13999999999999 m -1, 0 a 1,1 0 1,0 2,0 a 1,1 0 1,0 -2,0 M 122.35 -80.13999999999999 m -0.5, 0 a 0.5,0.5 0 1,0 1,0 a 0.5,0.5 0 1,0 -1,0  M122.35 -80.13999999999999 L122.35 -80.13999999999999 134.35 -80.13999999999999 M 122.35 -74.13999999999999 m -1, 0 a 1,1 0 1,0 2,0 a 1,1 0 1,0 -2,0 M 122.35 -74.13999999999999 m -0.5, 0 a 0.5,0.5 0 1,0 1,0 a 0.5,0.5 0 1,0 -1,0  M122.35 -74.13999999999999 L122.35 -74.13999999999999 129.35 -80.13999999999999 122.35 -86.13999999999999 M 122.35 -86.13999999999999 m -1, 0 a 1,1 0 1,0 2,0 a 1,1 0 1,0 -2,0 M 122.35 -86.13999999999999 m -0.5, 0 a 0.5,0.5 0 1,0 1,0 a 0.5,0.5 0 1,0 -1,0  M134.35 -80.13999999999999 Q 154.73 -80.13999999999999, 175.11 -85.14 T 215.86 -90.15 M 227.86 -90.15 m -1, 0 a 1,1 0 1,0 2,0 a 1,1 0 1,0 -2,0 M 227.86 -90.15 m -0.5, 0 a 0.5,0.5 0 1,0 1,0 a 0.5,0.5 0 1,0 -1,0  M227.86 -90.15 L227.86 -90.15 215.86 -90.15 M221.86 -84.15 L221.86 -84.15 221.86 -96.15" id="h3399847858" class="r"></path><path d="M 367.89 -190.15 m -1, 0 a 1,1 0 1,0 2,0 a 1,1 0 1,0 -2,0 M 367.89 -190.15 m -0.5, 0 a 0.5,0.5 0 1,0 1,0 a 0.5,0.5 0 1,0 -1,0  M367.89 -190.15 L367.89 -190.15 379.89 -190.15 M 367.89 -184.15 m -1, 0 a 1,1 0 1,0 2,0 a 1,1 0 1,0 -2,0 M 367.89 -184.15 m -0.5, 0 a 0.5,0.5 0 1,0 1,0 a 0.5,0.5 0 1,0 -1,0  M367.89 -184.15 L367.89 -184.15 374.89 -190.15 367.89 -196.15 M 367.89 -196.15 m -1, 0 a 1,1 0 1,0 2,0 a 1,1 0 1,0 -2,0 M 367.89 -196.15 m -0.5, 0 a 0.5,0.5 0 1,0 1,0 a 0.5,0.5 0 1,0 -1,0  M379.89 -190.15 Q 407.46 -190.15, 435.02 -74.08 T 490.14 41.99 M 502.14 41.99 m -1, 0 a 1,1 0 1,0 2,0 a 1,1 0 1,0 -2,0 M 502.14 41.99 m -0.5, 0 a 0.5,0.5 0 1,0 1,0 a 0.5,0.5 0 1,0 -1,0  M502.14 41.99 L502.14 41.99 490.14 41.99 M496.14 47.99 L496.14 47.99 496.14 35.99" id="h2235569489" class="r"></path><path d="M 502.14 66.99000000000001 m -1, 0 a 1,1 0 1,0 2,0 a 1,1 0 1,0 -2,0 M 502.14 66.99000000000001 m -0.5, 0 a 0.5,0.5 0 1,0 1,0 a 0.5,0.5 0 1,0 -1,0  M502.14 66.99000000000001 L502.14 66.99000000000001 490.14 66.99000000000001 M 502.14 72.99000000000001 m -1, 0 a 1,1 0 1,0 2,0 a 1,1 0 1,0 -2,0 M 502.14 72.99000000000001 m -0.5, 0 a 0.5,0.5 0 1,0 1,0 a 0.5,0.5 0 1,0 -1,0  M502.14 72.99000000000001 L502.14 72.99000000000001 495.14 66.99000000000001 502.14 60.99000000000001 M 502.14 60.99000000000001 m -1, 0 a 1,1 0 1,0 2,0 a 1,1 0 1,0 -2,0 M 502.14 60.99000000000001 m -0.5, 0 a 0.5,0.5 0 1,0 1,0 a 0.5,0.5 0 1,0 -1,0  M490.14 66.99000000000001 Q 465.77 66.99000000000001, 441.39 124.85 T 392.63 182.70999999999998 M 380.63 182.70999999999998 m -1, 0 a 1,1 0 1,0 2,0 a 1,1 0 1,0 -2,0 M 380.63 182.70999999999998 m -0.5, 0 a 0.5,0.5 0 1,0 1,0 a 0.5,0.5 0 1,0 -1,0  M380.63 182.70999999999998 L380.63 182.70999999999998 392.63 182.70999999999998 M386.63 188.70999999999998 L386.63 188.70999999999998 386.63 176.70999999999998" id="h1281350960" class="r"></path><path d="M 131.23 82.72 m -1, 0 a 1,1 0 1,0 2,0 a 1,1 0 1,0 -2,0 M 131.23 82.72 m -0.5, 0 a 0.5,0.5 0 1,0 1,0 a 0.5,0.5 0 1,0 -1,0  M131.23 82.72 L131.23 82.72 143.23 82.72 M 131.23 88.72 m -1, 0 a 1,1 0 1,0 2,0 a 1,1 0 1,0 -2,0 M 131.23 88.72 m -0.5, 0 a 0.5,0.5 0 1,0 1,0 a 0.5,0.5 0 1,0 -1,0  M131.23 88.72 L131.23 88.72 138.23 82.72 131.23 76.72 M 131.23 76.72 m -1, 0 a 1,1 0 1,0 2,0 a 1,1 0 1,0 -2,0 M 131.23 76.72 m -0.5, 0 a 0.5,0.5 0 1,0 1,0 a 0.5,0.5 0 1,0 -1,0  M143.23 82.72 Q 159.07 82.72, 174.91 220.21 T 206.58 357.71 M 218.58 357.71 m -1, 0 a 1,1 0 1,0 2,0 a 1,1 0 1,0 -2,0 M 218.58 357.71 m -0.5, 0 a 0.5,0.5 0 1,0 1,0 a 0.5,0.5 0 1,0 -1,0  M218.58 357.71 L218.58 357.71 206.58 357.71 M212.58 363.71 L212.58 363.71 212.58 351.71" id="h2839833751" class="r"></path><path d="M 380.63 182.70999999999998 m -1, 0 a 1,1 0 1,0 2,0 a 1,1 0 1,0 -2,0 M 380.63 182.70999999999998 m -0.5, 0 a 0.5,0.5 0 1,0 1,0 a 0.5,0.5 0 1,0 -1,0  M380.63 182.70999999999998 L380.63 182.70999999999998 392.63 182.70999999999998 M 380.63 188.70999999999998 m -1, 0 a 1,1 0 1,0 2,0 a 1,1 0 1,0 -2,0 M 380.63 188.70999999999998 m -0.5, 0 a 0.5,0.5 0 1,0 1,0 a 0.5,0.5 0 1,0 -1,0  M380.63 188.70999999999998 L380.63 188.70999999999998 387.63 182.70999999999998 380.63 176.70999999999998 M 380.63 176.70999999999998 m -1, 0 a 1,1 0 1,0 2,0 a 1,1 0 1,0 -2,0 M 380.63 176.70999999999998 m -0.5, 0 a 0.5,0.5 0 1,0 1,0 a 0.5,0.5 0 1,0 -1,0  M392.63 182.70999999999998 C 433.5248446900367 182.70999999999998, 444.0248446900367 61.28, 375.13 61.28 M 363.13 61.28 m -1, 0 a 1,1 0 1,0 2,0 a 1,1 0 1,0 -2,0 M 363.13 61.28 m -0.5, 0 a 0.5,0.5 0 1,0 1,0 a 0.5,0.5 0 1,0 -1,0  M363.13 61.28 L363.13 61.28 375.13 61.28 M369.13 67.28 L369.13 67.28 369.13 55.28" id="h407720351" class="r"></path><path d="M 218.58 207.70999999999998 m -1, 0 a 1,1 0 1,0 2,0 a 1,1 0 1,0 -2,0 M 218.58 207.70999999999998 m -0.5, 0 a 0.5,0.5 0 1,0 1,0 a 0.5,0.5 0 1,0 -1,0  M218.58 207.70999999999998 L218.58 207.70999999999998 206.58 207.70999999999998 M 218.58 213.70999999999998 m -1, 0 a 1,1 0 1,0 2,0 a 1,1 0 1,0 -2,0 M 218.58 213.70999999999998 m -0.5, 0 a 0.5,0.5 0 1,0 1,0 a 0.5,0.5 0 1,0 -1,0  M218.58 213.70999999999998 L218.58 213.70999999999998 211.58 207.70999999999998 218.58 201.70999999999998 M 218.58 201.70999999999998 m -1, 0 a 1,1 0 1,0 2,0 a 1,1 0 1,0 -2,0 M 218.58 201.70999999999998 m -0.5, 0 a 0.5,0.5 0 1,0 1,0 a 0.5,0.5 0 1,0 -1,0  M206.58 207.70999999999998 Q 188.53 207.70999999999998, 170.47 63.79 T 134.35 -80.13999999999999 M 122.35 -80.13999999999999 m -1, 0 a 1,1 0 1,0 2,0 a 1,1 0 1,0 -2,0 M 122.35 -80.13999999999999 m -0.5, 0 a 0.5,0.5 0 1,0 1,0 a 0.5,0.5 0 1,0 -1,0  M122.35 -80.13999999999999 L122.35 -80.13999999999999 134.35 -80.13999999999999 M128.35 -74.13999999999999 L128.35 -74.13999999999999 128.35 -86.13999999999999" id="h1261223179" class="r"></path><path d="M 380.63 332.71 m -1, 0 a 1,1 0 1,0 2,0 a 1,1 0 1,0 -2,0 M 380.63 332.71 m -0.5, 0 a 0.5,0.5 0 1,0 1,0 a 0.5,0.5 0 1,0 -1,0  M380.63 332.71 L380.63 332.71 392.63 332.71 M 380.63 338.71 m -1, 0 a 1,1 0 1,0 2,0 a 1,1 0 1,0 -2,0 M 380.63 338.71 m -0.5, 0 a 0.5,0.5 0 1,0 1,0 a 0.5,0.5 0 1,0 -1,0  M380.63 338.71 L380.63 338.71 387.63 332.71 380.63 326.71 M 380.63 326.71 m -1, 0 a 1,1 0 1,0 2,0 a 1,1 0 1,0 -2,0 M 380.63 326.71 m -0.5, 0 a 0.5,0.5 0 1,0 1,0 a 0.5,0.5 0 1,0 -1,0  M392.63 332.71 Q 412.9 332.71, 433.17 282.71 T 473.7 232.71 M 485.7 232.71 m -1, 0 a 1,1 0 1,0 2,0 a 1,1 0 1,0 -2,0 M 485.7 232.71 m -0.5, 0 a 0.5,0.5 0 1,0 1,0 a 0.5,0.5 0 1,0 -1,0  M485.7 232.71 L485.7 232.71 473.7 232.71 M479.7 238.71 L479.7 238.71 479.7 226.71" id="h4249204585" class="r"></path><path d="M 7.87 263.43 m -1, 0 a 1,1 0 1,0 2,0 a 1,1 0 1,0 -2,0 M 7.87 263.43 m -0.5, 0 a 0.5,0.5 0 1,0 1,0 a 0.5,0.5 0 1,0 -1,0  M7.87 263.43 L7.87 263.43 -4.13 263.43 M 7.87 269.43 m -1, 0 a 1,1 0 1,0 2,0 a 1,1 0 1,0 -2,0 M 7.87 269.43 m -0.5, 0 a 0.5,0.5 0 1,0 1,0 a 0.5,0.5 0 1,0 -1,0  M7.87 269.43 L7.87 269.43 0.8700000000000001 263.43 7.87 257.43 M 7.87 257.43 m -1, 0 a 1,1 0 1,0 2,0 a 1,1 0 1,0 -2,0 M 7.87 257.43 m -0.5, 0 a 0.5,0.5 0 1,0 1,0 a 0.5,0.5 0 1,0 -1,0  M-4.13 263.43 C -66.72200000000001 263.43, -62 -80.13999999999999, -12 -80.13999999999999 M 0 -80.13999999999999 m -1, 0 a 1,1 0 1,0 2,0 a 1,1 0 1,0 -2,0 M 0 -80.13999999999999 m -0.5, 0 a 0.5,0.5 0 1,0 1,0 a 0.5,0.5 0 1,0 -1,0  M0 -80.13999999999999 L0 -80.13999999999999 -12 -80.13999999999999 M-6 -74.13999999999999 L-6 -74.13999999999999 -6 -86.13999999999999" id="h2835479614" class="r"></path><path d="M 132.56 288.43 m -1, 0 a 1,1 0 1,0 2,0 a 1,1 0 1,0 -2,0 M 132.56 288.43 m -0.5, 0 a 0.5,0.5 0 1,0 1,0 a 0.5,0.5 0 1,0 -1,0  M132.56 288.43 L132.56 288.43 144.56 288.43 M 132.56 294.43 m -1, 0 a 1,1 0 1,0 2,0 a 1,1 0 1,0 -2,0 M 132.56 294.43 m -0.5, 0 a 0.5,0.5 0 1,0 1,0 a 0.5,0.5 0 1,0 -1,0  M132.56 294.43 L132.56 294.43 139.56 288.43 132.56 282.43 M 132.56 282.43 m -1, 0 a 1,1 0 1,0 2,0 a 1,1 0 1,0 -2,0 M 132.56 282.43 m -0.5, 0 a 0.5,0.5 0 1,0 1,0 a 0.5,0.5 0 1,0 -1,0  M144.56 288.43 Q 160.07 288.43, 175.57 235.57 T 206.58 182.70999999999998 M 218.58 182.70999999999998 m -1, 0 a 1,1 0 1,0 2,0 a 1,1 0 1,0 -2,0 M 218.58 182.70999999999998 m -0.5, 0 a 0.5,0.5 0 1,0 1,0 a 0.5,0.5 0 1,0 -1,0  M218.58 182.70999999999998 L218.58 182.70999999999998 206.58 182.70999999999998 M212.58 188.70999999999998 L212.58 188.70999999999998 212.58 176.70999999999998" id="h3118120024" class="r"></path><path d="M 363.13 36.28 m -1, 0 a 1,1 0 1,0 2,0 a 1,1 0 1,0 -2,0 M 363.13 36.28 m -0.5, 0 a 0.5,0.5 0 1,0 1,0 a 0.5,0.5 0 1,0 -1,0  M363.13 36.28 L363.13 36.28 375.13 36.28 M 363.13 42.28 m -1, 0 a 1,1 0 1,0 2,0 a 1,1 0 1,0 -2,0 M 363.13 42.28 m -0.5, 0 a 0.5,0.5 0 1,0 1,0 a 0.5,0.5 0 1,0 -1,0  M363.13 42.28 L363.13 42.28 370.13 36.28 363.13 30.28 M 363.13 30.28 m -1, 0 a 1,1 0 1,0 2,0 a 1,1 0 1,0 -2,0 M 363.13 30.28 m -0.5, 0 a 0.5,0.5 0 1,0 1,0 a 0.5,0.5 0 1,0 -1,0  M375.13 36.28 C 432.746 36.28, 429.89 -190.15, 379.89 -190.15 M 367.89 -190.15 m -1, 0 a 1,1 0 1,0 2,0 a 1,1 0 1,0 -2,0 M 367.89 -190.15 m -0.5, 0 a 0.5,0.5 0 1,0 1,0 a 0.5,0.5 0 1,0 -1,0  M367.89 -190.15 L367.89 -190.15 379.89 -190.15 M373.89 -184.15 L373.89 -184.15 373.89 -196.15" id="h2999752430" class="r"></path><path d="M 236.42 86.28 m -1, 0 a 1,1 0 1,0 2,0 a 1,1 0 1,0 -2,0 M 236.42 86.28 m -0.5, 0 a 0.5,0.5 0 1,0 1,0 a 0.5,0.5 0 1,0 -1,0  M236.42 86.28 L236.42 86.28 224.42 86.28 M 236.42 92.28 m -1, 0 a 1,1 0 1,0 2,0 a 1,1 0 1,0 -2,0 M 236.42 92.28 m -0.5, 0 a 0.5,0.5 0 1,0 1,0 a 0.5,0.5 0 1,0 -1,0  M236.42 92.28 L236.42 92.28 229.42 86.28 236.42 80.28 M 236.42 80.28 m -1, 0 a 1,1 0 1,0 2,0 a 1,1 0 1,0 -2,0 M 236.42 80.28 m -0.5, 0 a 0.5,0.5 0 1,0 1,0 a 0.5,0.5 0 1,0 -1,0  M224.42 86.28 Q 201.9 86.28, 179.39 3.07 T 134.35 -80.13999999999999 M 122.35 -80.13999999999999 m -1, 0 a 1,1 0 1,0 2,0 a 1,1 0 1,0 -2,0 M 122.35 -80.13999999999999 m -0.5, 0 a 0.5,0.5 0 1,0 1,0 a 0.5,0.5 0 1,0 -1,0  M122.35 -80.13999999999999 L122.35 -80.13999999999999 134.35 -80.13999999999999 M128.35 -74.13999999999999 L128.35 -74.13999999999999 128.35 -86.13999999999999" id="h3112096613" class="r"></path></g><g class="hrs"></g><g class="ts"><svg width="122.35" height="125" x="0" y="-137.14" id="h3010508784" class="t"><rect height="40" width="122.35" class="th"></rect><text x="13" y="25" class="tht">Teams</text><rect height="85" width="122.35" class="t-bg"></rect><text x="13" y="61" class="tf pk">TeamID<tspan x="109.35" class="ty">int</tspan></text><path d="M7,14A2,2 0 0,1 5,12A2,2 0 0,1 7,10A2,2 0 0,1 9,12A2,2 0 0,1 7,14M12.65,10C11.83,7.67 9.61,6 7, 6A6, 6 0 0, 0 1, 12A6, 6 0 0, 0 7, 18C9.61, 18 11.83, 16.33 12.65, 14H17V18H21V14H23V10H12.65Z" class="i pk" transform="translate(76.676171875, 48) scale(0.65)"></path><text x="13" y="86" class="tf">Name<tspan x="109.35" class="ty">string</tspan></text><path d="M814.545 581.818v-23.273H535.273v-93.09h-46.546v93.09H209.455v139.637H256V605.09h232.727v93.09h46.546v-93.09H768v93.09h46.545V581.819zM674.91 465.455H349.091V139.636h325.818v325.819zM325.82 884.364H139.635V698.182h186.182v186.182z m279.272 0H418.909V698.182h186.182v186.182z m279.273 0H698.182V698.182h186.182v186.182zM395.636 418.909h232.728V186.182H395.636v232.727zM186.182 837.82h93.09v-93.092h-93.09v93.091z m279.273 0h93.09v-93.092h-93.09v93.091z m279.272 0h93.091v-93.092h-93.09v93.091z" class="i ix" transform="translate(65.00625, 75) scale(0.014)"></path><text x="13" y="111" class="tf">City<tspan x="109.35" class="ty">int</tspan></text></svg><svg width="140.03" height="175" x="227.86" y="-247.15" id="h4103274130" class="t"><rect height="40" width="140.03" class="th"></rect><text x="13" y="25" class="tht">Players</text><rect height="135" width="140.03" class="t-bg"></rect><text x="13" y="61" class="tf pk">PlayerID<tspan x="127.03" class="ty">int</tspan></text><path d="M7,14A2,2 0 0,1 5,12A2,2 0 0,1 7,10A2,2 0 0,1 9,12A2,2 0 0,1 7,14M12.65,10C11.83,7.67 9.61,6 7, 6A6, 6 0 0, 0 1, 12A6, 6 0 0, 0 7, 18C9.61, 18 11.83, 16.33 12.65, 14H17V18H21V14H23V10H12.65Z" class="i pk" transform="translate(94.356171875, 48) scale(0.65)"></path><text x="13" y="86" class="tf">Name<tspan x="127.03" class="ty">int</tspan></text><text x="13" y="111" class="tf">Birthday<tspan x="127.03" class="ty">int</tspan></text><text x="13" y="136" class="tf">Height<tspan x="127.03" class="ty">int</tspan></text><text x="13" y="161" class="tf fk">CurrentTeamID<tspan x="127.03" class="ty">int</tspan></text></svg><svg width="104.69" height="125" x="502.14" y="-40.01" id="h2207534861" class="t"><rect height="40" width="104.69" class="th"></rect><text x="13" y="25" class="tht">Goals</text><rect height="85" width="104.69" class="t-bg"></rect><text x="13" y="61" class="tf">GoalsID<tspan x="91.69" class="ty">int</tspan></text><text x="13" y="86" class="tf fk">PlayerID<tspan x="91.69" class="ty">int</tspan></text><text x="13" y="111" class="tf fk">MatchID<tspan x="91.69" class="ty">int</tspan></text></svg><svg width="133.37" height="100" x="-2.14" y="25.72" id="h332749422" class="t"><rect height="40" width="133.37" class="th"></rect><text x="13" y="25" class="tht">Referees</text><rect height="60" width="133.37" class="t-bg"></rect><text x="13" y="61" class="tf pk">RefereeID<tspan x="120.37" class="ty">int</tspan></text><path d="M7,14A2,2 0 0,1 5,12A2,2 0 0,1 7,10A2,2 0 0,1 9,12A2,2 0 0,1 7,14M12.65,10C11.83,7.67 9.61,6 7, 6A6, 6 0 0, 0 1, 12A6, 6 0 0, 0 7, 18C9.61, 18 11.83, 16.33 12.65, 14H17V18H21V14H23V10H12.65Z" class="i pk" transform="translate(87.696171875, 48) scale(0.65)"></path><text x="13" y="86" class="tf">Name<tspan x="120.37" class="ty">int</tspan></text></svg><svg width="162.05" height="275" x="218.58" y="125.71" id="h3829905542" class="t"><rect height="40" width="162.05" class="th"></rect><text x="13" y="25" class="tht">Matches</text><rect height="235" width="162.05" class="t-bg"></rect><text x="13" y="61" class="tf pk">MatchID<tspan x="149.05" class="ty">int</tspan></text><path d="M7,14A2,2 0 0,1 5,12A2,2 0 0,1 7,10A2,2 0 0,1 9,12A2,2 0 0,1 7,14M12.65,10C11.83,7.67 9.61,6 7, 6A6, 6 0 0, 0 1, 12A6, 6 0 0, 0 7, 18C9.61, 18 11.83, 16.33 12.65, 14H17V18H21V14H23V10H12.65Z" class="i pk" transform="translate(116.37617187500001, 48) scale(0.65)"></path><text x="13" y="86" class="tf fk">HomeTeamID<tspan x="149.05" class="ty">int</tspan></text><text x="13" y="111" class="tf">AwayTeamID<tspan x="149.05" class="ty">int</tspan></text><text x="13" y="136" class="tf">Location<tspan x="149.05" class="ty">int</tspan></text><text x="13" y="161" class="tf">Date<tspan x="149.05" class="ty">int</tspan></text><text x="13" y="186" class="tf">StartTime<tspan x="149.05" class="ty">int</tspan></text><text x="13" y="211" class="tf fk">SeasonID<tspan x="149.05" class="ty">int</tspan></text><text x="13" y="236" class="tf fk">HeadRefereeID<tspan x="149.05" class="ty">int</tspan></text><text x="13" y="261" class="tf">AssistantRefereeID<tspan x="149.05" class="ty">int</tspan></text></svg><svg width="124.69" height="150" x="7.87" y="181.43" id="h1488401382" class="t"><rect height="40" width="124.69" class="th"></rect><text x="13" y="25" class="tht">Results</text><rect height="110" width="124.69" class="t-bg"></rect><text x="13" y="61" class="tf pk">ResultID<tspan x="111.69" class="ty">int</tspan></text><path d="M7,14A2,2 0 0,1 5,12A2,2 0 0,1 7,10A2,2 0 0,1 9,12A2,2 0 0,1 7,14M12.65,10C11.83,7.67 9.61,6 7, 6A6, 6 0 0, 0 1, 12A6, 6 0 0, 0 7, 18C9.61, 18 11.83, 16.33 12.65, 14H17V18H21V14H23V10H12.65Z" class="i pk" transform="translate(79.016171875, 48) scale(0.65)"></path><text x="13" y="86" class="tf fk">TeamID<tspan x="111.69" class="ty">int</tspan></text><text x="13" y="111" class="tf fk">MatchID<tspan x="111.69" class="ty">int</tspan></text><text x="13" y="136" class="tf">result<tspan x="111.69" class="ty">int</tspan></text></svg><svg width="126.71" height="150" x="236.42" y="-45.72" id="h1247361070" class="t"><rect height="40" width="126.71" class="th"></rect><text x="13" y="25" class="tht">Lineups</text><rect height="110" width="126.71" class="t-bg"></rect><text x="13" y="61" class="tf pk">LineupID<tspan x="113.71" class="ty">int</tspan></text><path d="M7,14A2,2 0 0,1 5,12A2,2 0 0,1 7,10A2,2 0 0,1 9,12A2,2 0 0,1 7,14M12.65,10C11.83,7.67 9.61,6 7, 6A6, 6 0 0, 0 1, 12A6, 6 0 0, 0 7, 18C9.61, 18 11.83, 16.33 12.65, 14H17V18H21V14H23V10H12.65Z" class="i pk" transform="translate(81.036171875, 48) scale(0.65)"></path><text x="13" y="86" class="tf fk">PlayerID<tspan x="113.71" class="ty">int</tspan></text><text x="13" y="111" class="tf fk">MatchID<tspan x="113.71" class="ty">int</tspan></text><text x="13" y="136" class="tf fk">TeamID<tspan x="113.71" class="ty">int</tspan></text></svg><svg width="131.37" height="125" x="485.7" y="175.71" id="h3133071897" class="t"><rect height="40" width="131.37" class="th"></rect><text x="13" y="25" class="tht">Season</text><rect height="85" width="131.37" class="t-bg"></rect><text x="13" y="61" class="tf pk">SeasonID<tspan x="118.37" class="ty">int</tspan></text><path d="M7,14A2,2 0 0,1 5,12A2,2 0 0,1 7,10A2,2 0 0,1 9,12A2,2 0 0,1 7,14M12.65,10C11.83,7.67 9.61,6 7, 6A6, 6 0 0, 0 1, 12A6, 6 0 0, 0 7, 18C9.61, 18 11.83, 16.33 12.65, 14H17V18H21V14H23V10H12.65Z" class="i pk" transform="translate(85.696171875, 48) scale(0.65)"></path><text x="13" y="86" class="tf">StartDate<tspan x="118.37" class="ty">int</tspan></text><text x="13" y="111" class="tf">EndDate<tspan x="118.37" class="ty">int</tspan></text></svg></g></g><text class="qdbd-link" x="10" y="20">www.quickdatabasediagrams.com</text></svg>